<svg xmlns="http://www.w3.org/2000/svg" xml:lang="en" viewBox="-35.608 -124.304 135.608 135.608" style="" color="#000"><circle cx="0" cy="-43.2" r="18" style="stroke:currentColor;fill:none;stroke-width:2.4" /><path d="M 0.0,-0.0 L 0,-25.2 L 0,-25.2 M 0,-61.2 L 0,-61.2 L 0,-86.4" style="stroke:currentColor;fill:none;stroke-width:2.4;stroke-linecap:round;stroke-linejoin:round" /><path d="M 3.6,-34.2 L -3.6,-34.2" style="stroke:currentColor;fill:none;stroke-width:2.4;stroke-linecap:round;stroke-linejoin:round" /><path d="M 0,-48.6 L 0,-55.8" style="stroke:currentColor;fill:none;stroke-width:2.4;stroke-linecap:round;stroke-linejoin:round" /><path d="M 3.6,-52.2 L -3.6,-52.2" style="stroke:currentColor;fill:none;stroke-width:2.4;stroke-linecap:round;stroke-linejoin:round" /><path d="M 0,-86.4 L 25.2,-86.4 L 28.2,-95.4 L 34.2,-77.4 L 40.2,-95.4 L 46.2,-77.4 L 52.2,-95.4 L 58.2,-77.4 L 61.2,-86.4 L 86.4,-86.4" style="stroke:currentColor;fill:none;stroke-width:2.4;stroke-linecap:round;stroke-linejoin:round" /><path d="M 86.4,-86.4 L 86.4,-46.44 M 95.4,-46.44 L 77.4,-46.44 M 95.4,-39.96 L 77.4,-39.96 M 86.4,-39.96 L 86.4,-0" style="stroke:currentColor;fill:none;stroke-width:2.4;stroke-linecap:round;stroke-linejoin:round" /><path d="M 86.4,-0 L 43.2,-0 L -0,-0" style="stroke:currentColor;fill:none;stroke-width:2.4;stroke-linecap:round;stroke-linejoin:round" /><text x="-21.6" y="-57.2" dominant-baseline="central" fill="currentColor" font-size="14.0" font-family="sans" text-anchor="end"><tspan x="-21.6" dy="14.0">V</tspan></text><text x="43.2" y="-113.0" dominant-baseline="ideographic" fill="currentColor" font-size="14.0" font-family="sans" text-anchor="middle"><tspan x="43.2" dy="14.0">R</tspan></text><text x="73.8" y="-57.2" dominant-baseline="central" fill="currentColor" font-size="14.0" font-family="sans" text-anchor="end"><tspan x="73.8" dy="14.0">C</tspan></text></svg>